<svg xmlns="http://www.w3.org/2000/svg" width="162.492" height="24.684" viewBox="0 0 162.492 24.684">
  <path id="logo" d="M4.686-.528H1.452a.3.3,0,0,0-.33.3A.318.318,0,0,0,1.485.1C1.749.1,5.016-.066,6.4-.066,7.755-.066,9.273.1,10.626.1c3.663,0,8.811-1.122,8.811-6.138,0-3.8-2.937-5.643-6.468-6.171,3.3-.429,5.94-2.244,5.94-5.709,0-5.016-5.379-5.643-8.613-5.643-1.023,0-2.178.066-3.069.066-1.122,0-5.445-.1-5.676-.1-.363,0-.429.132-.429.3a.311.311,0,0,0,.33.33H4.686Zm3.3-.1V-11.88h.429c3.366,0,7.59.231,7.59,5.742,0,5.28-3.927,5.511-7.1,5.511Zm0-11.88V-22.968h.1c3.168,0,7.392.033,7.392,5.346,0,5.049-3.8,5.115-7.062,5.115Zm27.06,4.554c.264,0,.462-.033.462-.33a4.734,4.734,0,0,0-.132-.726c-.693-2.838-2.64-5.28-5.94-5.28a7.274,7.274,0,0,0-7.1,7.557A6.86,6.86,0,0,0,29.37.429a5.887,5.887,0,0,0,5.808-4.092,2.215,2.215,0,0,0,.165-.528.235.235,0,0,0-.231-.264c-.264,0-.363.231-.429.4A5.26,5.26,0,0,1,29.535-.2c-3.6,0-3.894-2.9-3.894-7.755ZM25.674-8.58c.132-3.267,1.155-5.082,3.465-5.082,2.574,0,2.805,2.244,2.805,5.082ZM49.9-10.4c0-3.168-3.6-3.894-6.072-3.894-3.762,0-4.587,1.65-4.587,3a1.647,1.647,0,0,0,1.65,1.881,1.42,1.42,0,0,0,1.485-1.485,1.421,1.421,0,0,0-1.518-1.452,1.519,1.519,0,0,0-.429.066c-.033,0-.033-.1-.033-.1,0-.4.726-1.287,3.333-1.287,3.036,0,3.036,1.452,3.036,4.224v1.881a4.351,4.351,0,0,0-3.2-1.056c-3.663,0-5.808,2.31-5.808,5.016,0,2.508,1.914,4.026,4.488,4.026a5.939,5.939,0,0,0,4.587-2.178c.33,1.518,1.518,1.98,3.135,1.98,2.277,0,2.607-.825,2.607-1.716,0-.1,0-.429-.3-.429-.33,0-.33.33-.33.429,0,.462-.033,1.023-.99,1.023-1.056,0-1.056-.66-1.056-3.1Zm-3.135,7.92a3.472,3.472,0,0,1-2.9,1.848c-1.749,0-2.805-1.419-2.805-3.795,0-1.815.627-3.6,3.036-3.6a3.249,3.249,0,0,1,2.673,1.155ZM59.433-.528V-7.26c0-2.574.726-6.2,3.069-6.2.891,0,1.584.5,1.584.957,0,.066,0,.1-.033.1a1.809,1.809,0,0,0-.726-.165,1.412,1.412,0,0,0-1.452,1.485,1.323,1.323,0,0,0,1.452,1.419c1.122,0,1.716-.825,1.716-2.013a2.262,2.262,0,0,0-2.475-2.409,3.36,3.36,0,0,0-3.135,2.772V-13.5c0-.231,0-.3-.132-.3a14.887,14.887,0,0,1-2.079.165c-1.023,0-1.485,0-3.2-.033a.337.337,0,0,0-.363.3.339.339,0,0,0,.363.33h1.287c.759,0,.99.2.99,1.221V-.528H54.021a.337.337,0,0,0-.363.3.339.339,0,0,0,.363.33c.594,0,1.914-.1,3.96-.1,1.683,0,2.343.066,3.729.1a.339.339,0,0,0,.363-.33.337.337,0,0,0-.363-.3Zm12.177,0V-23.991c0-.2,0-.264-.132-.264a16.845,16.845,0,0,1-2.046.132H66.2c-.231,0-.363.132-.363.3a.339.339,0,0,0,.363.33h1.32c.726,0,.957.165.957,1.221V-.528H66.2a.337.337,0,0,0-.363.3A.339.339,0,0,0,66.2.1c.594,0,1.947-.1,3.96-.1,1.683,0,2.376.066,3.729.1a.339.339,0,0,0,.363-.33.337.337,0,0,0-.363-.3Zm9.6,0V-13.5c0-.231,0-.3-.132-.3A14.887,14.887,0,0,1,79-13.629c-1.584,0-2.046,0-3.2-.033a.337.337,0,0,0-.363.3.339.339,0,0,0,.363.33h1.287c.759,0,.99.2.99,1.221V-.528H75.8a.337.337,0,0,0-.363.3A.339.339,0,0,0,75.8.1c.594,0,1.914-.1,3.96-.1C81.444,0,82.1.066,83.49.1a.339.339,0,0,0,.363-.33.337.337,0,0,0-.363-.3ZM81.444-20.3A1.838,1.838,0,0,0,79.6-22.11,1.8,1.8,0,0,0,77.814-20.3,1.782,1.782,0,0,0,79.6-18.48,1.817,1.817,0,0,0,81.444-20.3Zm4.521,20c0,.264.1.363.33.363.264,0,.3-.1.3-.363,0-.627,0-.825.2-.825.429,0,1.947,1.551,4.191,1.551,3.333,0,5.412-1.98,5.412-4.752,0-6.039-9.075-3.63-9.075-6.93a2.518,2.518,0,0,1,2.706-2.409c1.881,0,3.267.693,4.521,3.135.1.2.132.3.3.3.2,0,.363-.033.363-.2a1.02,1.02,0,0,0-.066-.264,9.689,9.689,0,0,1-.3-3.069.312.312,0,0,0-.33-.33c-.2,0-.3.132-.3.33v.561c0,.3,0,.462-.132.462-.1,0-.2-.066-.462-.264a5.062,5.062,0,0,0-3.531-1.287,4.026,4.026,0,0,0-4.224,3.861c0,5.94,8.91,3.333,8.91,7.359,0,1.947-1.881,2.871-3.6,2.871-2.211,0-4.587-1.551-4.587-4.059,0-.3-.066-.33-.3-.33a.312.312,0,0,0-.33.33Zm13.266,0c0,.264.1.363.33.363.264,0,.3-.1.3-.363,0-.627,0-.825.2-.825.429,0,1.947,1.551,4.191,1.551,3.333,0,5.412-1.98,5.412-4.752,0-6.039-9.075-3.63-9.075-6.93a2.518,2.518,0,0,1,2.706-2.409c1.881,0,3.267.693,4.521,3.135.1.2.132.3.3.3.2,0,.363-.033.363-.2a1.02,1.02,0,0,0-.066-.264,9.689,9.689,0,0,1-.3-3.069.312.312,0,0,0-.33-.33c-.2,0-.3.132-.3.33v.561c0,.3,0,.462-.132.462-.1,0-.2-.066-.462-.264a5.062,5.062,0,0,0-3.531-1.287,4.026,4.026,0,0,0-4.224,3.861c0,5.94,8.91,3.333,8.91,7.359,0,1.947-1.881,2.871-3.6,2.871-2.211,0-4.587-1.551-4.587-4.059,0-.3-.066-.33-.3-.33a.312.312,0,0,0-.33.33Zm18.15-.231V-13.5c0-.231,0-.3-.132-.3a14.887,14.887,0,0,1-2.079.165c-1.584,0-2.046,0-3.2-.033a.337.337,0,0,0-.363.3.339.339,0,0,0,.363.33h1.287c.759,0,.99.2.99,1.221V-.528h-2.277a.337.337,0,0,0-.363.3.339.339,0,0,0,.363.33c.594,0,1.914-.1,3.96-.1,1.683,0,2.343.066,3.729.1a.339.339,0,0,0,.363-.33.337.337,0,0,0-.363-.3Zm.231-19.767a1.838,1.838,0,0,0-1.848-1.815,1.8,1.8,0,0,0-1.782,1.815,1.782,1.782,0,0,0,1.782,1.815A1.817,1.817,0,0,0,117.612-20.3ZM145.7-.528v-7.92c0-2.508-.891-5.643-4.554-5.643-3.4,0-4.455,2.673-4.95,3.894a4.248,4.248,0,0,0-4.389-3.894,4.985,4.985,0,0,0-4.785,3.6v-3c0-.231,0-.3-.132-.3a13.543,13.543,0,0,1-2.046.165c-1.056,0-1.518,0-3.234-.033a.337.337,0,0,0-.363.3.339.339,0,0,0,.363.33h1.32c.726,0,.957.2.957,1.221V-.528h-2.277a.337.337,0,0,0-.363.3.339.339,0,0,0,.363.33c.594,0,1.947-.1,3.96-.1,1.683,0,2.376.066,3.729.1a.339.339,0,0,0,.363-.33.337.337,0,0,0-.363-.3h-2.277v-7.26c0-3,1.749-5.643,4.059-5.643,1.749,0,2.145,1.584,2.145,3.564V-.528h-2.277a.337.337,0,0,0-.363.3.339.339,0,0,0,.363.33c.594,0,1.947-.1,3.993-.1,1.65,0,2.343.066,3.729.1a.331.331,0,0,0,.33-.33.326.326,0,0,0-.33-.3h-2.31V-7.887c0-2.97,1.782-5.544,4.059-5.544,1.749,0,2.145,1.584,2.145,3.564V-.528h-2.277a.3.3,0,0,0-.33.3.311.311,0,0,0,.33.33c.594,0,1.947-.1,3.993-.1,1.65,0,2.343.066,3.729.1a.331.331,0,0,0,.33-.33.326.326,0,0,0-.33-.3Zm10.923.957a7.176,7.176,0,0,0,7-7.227c0-3.762-3-7.491-7-7.491-4.026,0-7,3.729-7,7.491A7.154,7.154,0,0,0,156.618.429Zm0-.627c-2.8,0-3.7-3.234-3.7-6.633,0-3.432.891-6.831,3.7-6.831,2.772,0,3.7,3.465,3.7,6.9C160.314-3.366,159.39-.2,156.618-.2Z" transform="translate(-1.122 24.255)" fill="#dbcba6" opacity="0.86"/>
</svg>
